/* XPM */
static char *result[] = {
/* columns rows colors chars-per-pixel */
"64 64 6 1 ",
"  c #305020",
". c #508838",
"X c #50B820",
"o c #70E030",
"O c #60A048",
"+ c #CAFA09",
/* pixels */
"+.XO  O.XXX.X. X+ X  X.X++.oo..Xo.oO  O.ooo.o. ++ X  X.++XOoo..o",
"ooO   X O.XX. XXo .X . OXo .O  oXXO   o O.oo. XXo+.X O .oX .O  o",
"o++   .X++.o  .+oX ++X  XXo  o .ooo   .o++.o  ..oo XXo  oXX  o .",
".oo+XX XXX .XX oXXX.o+X .X.  .  .ooooo ooo .oo XXoX.XXX .X.  .  ",
" .oooO ...XXO.X.XXX .X.  X  o  X .oooO ...ooOOo.XXX .X.  X  X  X",
"  OXX +  XX. o. .XXX X   oX oo .  Ooo o  oo. o. .XXX X   XX ++ .",
"X X.. o XX. Xo X OXX o X .X ooo X X.. X Xo. oo X .XX X X .X XoX ",
"X .   o OO XXX .+X.XXXXO+ . ooooX .   ++O. XoX .+X.XXXX.X . XoXX",
".  X  oX  XO..  o+XOXXX oo  .ooX.  X  oX  XO..  o+XOXXX XX  .oXX",
"X  XX XXX . XX  oXoX.XX ooo  oo.+  X+ oXX . XX  oo+o.XX XXX  XX.",
"X  XXX.XX   .XX XX.. XX oooo X. o  ooX.XX   .XX oo.. Xo XoXX X. ",
"X  OoX Oo XX OX XX + .X ..ooXO++o  OoX OX XX OX oo X .X ..XXX. X",
". + oXX .XXXX . XX o+ .   ..X oX. + oXX .XXXX . XX +X .   ..X ++",
"  o+.XX  XO..X  .X Xo++   + . oX  o+.XX  XO..X  .o o++X   X . oX",
"X oo XoX .X  .   . XXXXX  oX  oXX oo XXX .X  .   . oooXX  X+  o+",
"X oX XX.++. +  XX  XXoXXX oXX .oo Xo XX. +. +  oX  ooXXXX +oX .o",
"o oX X.+oX +oX X++ .XoXX.+ooXX XX Xo X. +o +o+ o++ .oXXX.XXo+X X",
"X oX . oXX oooo.XXXX.XXX XXXoX .X XX . +oX+oXoX.Xo+X.XXX XXooX .",
"o OX  +o+.oXXXXX.XXX OXX ..XooX X OX  +oX.XXXXXX.XXX OXX .OXXXX ",
".X X oooo oXo... .X.  XX   .XXo .X X +oo+ XXX... .X.  XX   .XXX ",
" . o oooX ...  ++ X   .. oo ...  . X oooo ...  oo X   .. XX ... ",
"X  . Xoo. ++ X .Xo.+  oo .oX   ++  . oXX.  + X .oo.+  ++ .XX   X",
".X  XXoo +o. oo OX o+ Xoo .. ++..X  XoXX  +. oo OX oX oo+ .. +X.",
"X.XXXoo.+oX XXXX .+oX XXoo ++o. o.XXXXX.++X Xooo .Xoo Xooo ++o. ",
"X .XXX.XoXX .O..X .ooX.XXO oXX  X+.XXX.XoXX .O..o .ooXOoX. ooo  ",
"XXXOX. XXX. + + .  o.o X. +oX.  +oXOo. XXX. X + .  o.o X. +oX.  ",
"OXX O  .XX +o o++  X . o XXXX +XOXX .  .XX ++ o+X  X . o XoXo oo",
" OXX  + .X oX Ooo+ . + . XXX. oX .XX  X .X+oX OoXX . ++. XXX. XX",
" +.X XXX .+o+X oooX  oX  X..  XX +.X +++ .ooXX oXXX  oX  X..  XX",
" o+. OX.  oXoo oXXX  oX  .X ++O. oX. OX.  XXXX ooXX  oX  .X XXO.",
" Xo   .   XXoo oooX +oXX  X ooX  XX   .   XXXX ooXX Xooo ++ XXX ",
" XXX  XX  .Xoo oo+++.XXX XX ooXX XXX  XX  .XXX oo.. .XXo oX XXXX",
"X.XO  O.XXX.X. XX Xo X.XXX.XX..XX.X.  O.X++.X. oo o  o.XXoOXX..o",
"XXO   X O.XX. XXX .o+O OXX ..  XX+.   ++O.XX. XXo .o . .XX ..  X",
"X++   .XXX.X  ..X++XXX  ooX  + .XoX   .o+X.X  ..Xo XXX  oXX  X .",
".XooXX XXX .oX XXoo.XXX .X.  .  .oXXXX XXX .XX XX+X.XXX .X.  .  ",
" .o+XO ...XX.OX.XoX .o.  X  +  X .XXXO ...+o.OX.Xo+ .X.  X  X  X",
"  OoX X  XX. X. .ooo X   XX oo .  .oX X  +X. X. .XoX o   XX XX .",
"X X.. X XX. XX X OXX X X .o o++ X o.. X XX. ++ + .o+ X X .X XXX ",
"X .   + OO XXX .+X.+++XOX . ooooo .   X O. XoX .oX.XXXX.X . XXXX",
". +X  oX  XO..  o+XOooX XX  OoXo.  X  XX  X...  +++OXXX +X  .XXX",
"X oXX o+X . XX  ooXX.o+ ooX  XXOX  ++ XXX . XX  oooo.oX o+X  XX.",
"X oXXX.Xo   .XX XX.. XX XooX X. +  Xo+.XX   .XX oo.. XX Xo+X X. ",
"X  OXX OX XX .X XX + .X ..XXX. +o  .oo OX XX .X XX X .X ..XXX. +",
". + XXX .XXoX . XX o+ .   ..X +o. X XoX .XXXX . XX +++.   ..X +o",
"  oo.XX  XO..X  .X oo++   X . oX  +X.oX  XO..X  .X oooo   X . oo",
"X oX XoX .+  .   . ooooX  ++  XXX oX XXX .X  .   . oXoXX  X+  oo",
"X oo XX. +o +  ++  ooooXX XoX .XX oX XX.++. +  ++  XXXXXX XoX oo",
"o oo X. +o +oX oo+ .oXXXOXXo++ XX XX o.+oo XoX oo+ .XXXo.XXXXX X",
"o oo .++oX oXXX.ooXo.XXX X+ooX .X XX . ooX +XXX.ooXX.XXo XXXXX .",
"X OX  ooXOXoXXXX.XXX OXX .OXXXX X .X  +oX.oooXXX.XXX .XX ..XXXo ",
".X X +ooX XXX... .X.  XX   .XXX .X X XoXX XXo... .X.  XX   .XXo ",
" . X oXXX ...  ++ X   .. ++ ...  . X XXXX ...  XX X   .. ++ ... ",
"X  . XXX. ++ X .oX.+  ++ .XX   ++  . XXX.  X X .oX.X  oX .oo   X",
".o  XXXX++o. XX .X o+ oo+ .. ++..X  XXoo  X. XX OX+++ +oX .. ++.",
"X.XXXXX.ooX XXXX .+oX XooX ++o. +.XXXoX.+++ XXXX .Xoo o+XX ++o. ",
"X .XXX.XXXX ...Oo .XXXOXXO oXX  o .XXX.+oXX O..Oo .ooX.oX. ooo  ",
"oXXOX. oXX.+X X O  X.X X. XXX.  X++.X. oo+. + X .  X.X o. +oX.  ",
"OoX O  .XX oX ++X  X O X XXXo ++OXX .  OXX +o ooo  X O X XoXX +X",
" OXX  X .X oX .o+X . X . XXo. oX OXX  + .X oo OooX . X . XXX. oX",
" X.X XXX .XoXX oo+X  oo  X..  XX X.X +o+ .+ooo o+++  XX  X..  oo",
" XX. OX.  XX++ oXo+  Xo  .X XoO. ++. Oo.  oooo oooX +++  .o XoO.",
" XX   .   X+oX XXXo XXXX  X XXX  oo   .   Xooo oooo oooo  X XXX ",
" XXX  XX  .XXX ++.. .XXX XX XXX+ XoX  XX  .Xoo ooo. .oXX XX XXXX"
};
