/* XPM */
static char *result[] = {
/* columns rows colors chars-per-pixel */
"64 64 4 1 ",
"  c #222034",
". c #45283C",
"X c #76428A",
"o c #D77BBA",
/* pixels */
"                                                                ",
"                                                                ",
"                                                                ",
"                                                                ",
"    ....XXXXoooooooooooooooo        ....XXXXoooooooooooooooo    ",
"    ....XXXXoooooooooooooooo        ....XXXXoooooooooooooooo    ",
"    ....XXXXoooooooooooooooo        ....XXXXoooooooooooooooo    ",
"    ....XXXXoooooooooooooooo        ....XXXXoooooooooooooooo    ",
"    ....XXXXXXXXXXXXXXXXoooo        ....XXXXXXXXXXXXXXXXoooo    ",
"    ....XXXXXXXXXXXXXXXXoooo        ....XXXXXXXXXXXXXXXXoooo    ",
"    ....XXXXXXXXXXXXXXXXoooo        ....XXXXXXXXXXXXXXXXoooo    ",
"    ....XXXXXXXXXXXXXXXXoooo        ....XXXXXXXXXXXXXXXXoooo    ",
"    ................XXXXXXXX        ................XXXXXXXX    ",
"    ................XXXXXXXX        ................XXXXXXXX    ",
"    ................XXXXXXXX        ................XXXXXXXX    ",
"    ................XXXXXXXX        ................XXXXXXXX    ",
"                                                                ",
"                                                                ",
"                                                                ",
"                                                                ",
"oooooooooooo        ....XXXXoooooooooooooooo        ....XXXXoooo",
"oooooooooooo        ....XXXXoooooooooooooooo        ....XXXXoooo",
"oooooooooooo        ....XXXXoooooooooooooooo        ....XXXXoooo",
"oooooooooooo        ....XXXXoooooooooooooooo        ....XXXXoooo",
"XXXXXXXXoooo        ....XXXXXXXXXXXXXXXXoooo        ....XXXXXXXX",
"XXXXXXXXoooo        ....XXXXXXXXXXXXXXXXoooo        ....XXXXXXXX",
"XXXXXXXXoooo        ....XXXXXXXXXXXXXXXXoooo        ....XXXXXXXX",
"XXXXXXXXoooo        ....XXXXXXXXXXXXXXXXoooo        ....XXXXXXXX",
"....XXXXXXXX        ................XXXXXXXX        ............",
"....XXXXXXXX        ................XXXXXXXX        ............",
"....XXXXXXXX        ................XXXXXXXX        ............",
"....XXXXXXXX        ................XXXXXXXX        ............",
"                                                                ",
"                                                                ",
"                                                                ",
"                                                                ",
"    ....XXXXoooooooooooooooo        ....XXXXoooooooooooooooo    ",
"    ....XXXXoooooooooooooooo        ....XXXXoooooooooooooooo    ",
"    ....XXXXoooooooooooooooo        ....XXXXoooooooooooooooo    ",
"    ....XXXXoooooooooooooooo        ....XXXXoooooooooooooooo    ",
"    ....XXXXXXXXXXXXXXXXoooo        ....XXXXXXXXXXXXXXXXoooo    ",
"    ....XXXXXXXXXXXXXXXXoooo        ....XXXXXXXXXXXXXXXXoooo    ",
"    ....XXXXXXXXXXXXXXXXoooo        ....XXXXXXXXXXXXXXXXoooo    ",
"    ....XXXXXXXXXXXXXXXXoooo        ....XXXXXXXXXXXXXXXXoooo    ",
"    ................XXXXXXXX        ................XXXXXXXX    ",
"    ................XXXXXXXX        ................XXXXXXXX    ",
"    ................XXXXXXXX        ................XXXXXXXX    ",
"    ................XXXXXXXX        ................XXXXXXXX    ",
"                                                                ",
"                                                                ",
"                                                                ",
"                                                                ",
"oooooooooooo        ....XXXXoooooooooooooooo        ....XXXXoooo",
"oooooooooooo        ....XXXXoooooooooooooooo        ....XXXXoooo",
"oooooooooooo        ....XXXXoooooooooooooooo        ....XXXXoooo",
"oooooooooooo        ....XXXXoooooooooooooooo        ....XXXXoooo",
"XXXXXXXXoooo        ....XXXXXXXXXXXXXXXXoooo        ....XXXXXXXX",
"XXXXXXXXoooo        ....XXXXXXXXXXXXXXXXoooo        ....XXXXXXXX",
"XXXXXXXXoooo        ....XXXXXXXXXXXXXXXXoooo        ....XXXXXXXX",
"XXXXXXXXoooo        ....XXXXXXXXXXXXXXXXoooo        ....XXXXXXXX",
"....XXXXXXXX        ................XXXXXXXX        ............",
"....XXXXXXXX        ................XXXXXXXX        ............",
"....XXXXXXXX        ................XXXXXXXX        ............",
"....XXXXXXXX        ................XXXXXXXX        ............"
};
